<?xml version="1.0" encoding="UTF-8" standalone="no"?>
<!DOCTYPE svg PUBLIC "-//W3C//DTD SVG 1.1//EN"
 "http://www.w3.org/Graphics/SVG/1.1/DTD/svg11.dtd">
<!-- Generated by graphviz version 2.38.0 (20140413.2041)
 -->
<!-- Title: file Pages: 1 -->
<svg width="709pt" height="188pt"
 viewBox="0.00 0.00 708.94 188.00" xmlns="http://www.w3.org/2000/svg" xmlns:xlink="http://www.w3.org/1999/xlink">
<g id="graph0" class="graph" transform="scale(1 1) rotate(0) translate(4 184)">
<title>file</title>
<polygon fill="white" stroke="none" points="-4,4 -4,-184 704.944,-184 704.944,4 -4,4"/>
<!-- file -->
<g id="node1" class="node"><title>file</title>
<ellipse fill="none" stroke="black" cx="335.147" cy="-162" rx="27" ry="18"/>
<text text-anchor="middle" x="335.147" y="-158.3" font-family="Times,serif" font-size="14.00">file</text>
</g>
<!-- path -->
<g id="node2" class="node"><title>path</title>
<ellipse fill="none" stroke="black" cx="90.1471" cy="-90" rx="27" ry="18"/>
<text text-anchor="middle" x="90.1471" y="-86.3" font-family="Times,serif" font-size="14.00">path</text>
</g>
<!-- file&#45;&gt;path -->
<g id="edge1" class="edge"><title>file&#45;&gt;path</title>
<path fill="none" stroke="black" d="M309.583,-156.177C269.715,-148.287 190.619,-131.152 126.147,-108 124.293,-107.334 122.406,-106.606 120.515,-105.837"/>
<polygon fill="black" stroke="black" points="121.745,-102.555 111.18,-101.762 118.944,-108.97 121.745,-102.555"/>
</g>
<!-- ensure -->
<g id="node3" class="node"><title>ensure</title>
<ellipse fill="none" stroke="black" cx="169.147" cy="-90" rx="33.5952" ry="18"/>
<text text-anchor="middle" x="169.147" y="-86.3" font-family="Times,serif" font-size="14.00">ensure</text>
</g>
<!-- file&#45;&gt;ensure -->
<g id="edge2" class="edge"><title>file&#45;&gt;ensure</title>
<path fill="none" stroke="black" d="M311.611,-152.97C282.9,-141.905 234.577,-121.714 202.194,-107.389"/>
<polygon fill="black" stroke="black" points="203.254,-104.029 192.696,-103.148 200.4,-110.421 203.254,-104.029"/>
</g>
<!-- owner -->
<g id="node4" class="node"><title>owner</title>
<ellipse fill="none" stroke="black" cx="253.147" cy="-90" rx="32.4942" ry="18"/>
<text text-anchor="middle" x="253.147" y="-86.3" font-family="Times,serif" font-size="14.00">owner</text>
</g>
<!-- file&#45;&gt;owner -->
<g id="edge3" class="edge"><title>file&#45;&gt;owner</title>
<path fill="none" stroke="black" d="M318.946,-147.17C307.274,-137.206 291.305,-123.574 278.022,-112.235"/>
<polygon fill="black" stroke="black" points="280.039,-109.355 270.161,-105.524 275.494,-114.679 280.039,-109.355"/>
</g>
<!-- group -->
<g id="node5" class="node"><title>group</title>
<ellipse fill="none" stroke="black" cx="335.147" cy="-90" rx="31.3957" ry="18"/>
<text text-anchor="middle" x="335.147" y="-86.3" font-family="Times,serif" font-size="14.00">group</text>
</g>
<!-- file&#45;&gt;group -->
<g id="edge4" class="edge"><title>file&#45;&gt;group</title>
<path fill="none" stroke="black" d="M335.147,-143.697C335.147,-135.983 335.147,-126.712 335.147,-118.112"/>
<polygon fill="black" stroke="black" points="338.647,-118.104 335.147,-108.104 331.647,-118.104 338.647,-118.104"/>
</g>
<!-- mode -->
<g id="node6" class="node"><title>mode</title>
<ellipse fill="none" stroke="black" cx="415.147" cy="-90" rx="30.5947" ry="18"/>
<text text-anchor="middle" x="415.147" y="-86.3" font-family="Times,serif" font-size="14.00">mode</text>
</g>
<!-- file&#45;&gt;mode -->
<g id="edge5" class="edge"><title>file&#45;&gt;mode</title>
<path fill="none" stroke="black" d="M350.952,-147.17C362.416,-137.14 378.127,-123.393 391.136,-112.01"/>
<polygon fill="black" stroke="black" points="393.604,-114.501 398.825,-105.282 388.995,-109.233 393.604,-114.501"/>
</g>
<!-- target -->
<g id="node7" class="node"><title>target</title>
<ellipse fill="none" stroke="black" cx="494.147" cy="-90" rx="30.5947" ry="18"/>
<text text-anchor="middle" x="494.147" y="-86.3" font-family="Times,serif" font-size="14.00">target</text>
</g>
<!-- file&#45;&gt;target -->
<g id="edge6" class="edge"><title>file&#45;&gt;target</title>
<path fill="none" stroke="black" d="M357.255,-151.267C384.127,-139.436 429.731,-119.359 460.858,-105.656"/>
<polygon fill="black" stroke="black" points="462.671,-108.682 470.413,-101.449 459.85,-102.275 462.671,-108.682"/>
</g>
<!-- content -->
<g id="node8" class="node"><title>content</title>
<ellipse fill="none" stroke="black" cx="579.147" cy="-90" rx="36.2938" ry="18"/>
<text text-anchor="middle" x="579.147" y="-86.3" font-family="Times,serif" font-size="14.00">content</text>
</g>
<!-- file&#45;&gt;content -->
<g id="edge7" class="edge"><title>file&#45;&gt;content</title>
<path fill="none" stroke="black" d="M360.2,-155.188C398.158,-146.19 472.363,-127.842 534.147,-108 536.741,-107.167 539.405,-106.27 542.079,-105.339"/>
<polygon fill="black" stroke="black" points="543.475,-108.556 551.696,-101.873 541.102,-101.971 543.475,-108.556"/>
</g>
<!-- source -->
<g id="node9" class="node"><title>source</title>
<ellipse fill="none" stroke="black" cx="667.147" cy="-90" rx="33.5952" ry="18"/>
<text text-anchor="middle" x="667.147" y="-86.3" font-family="Times,serif" font-size="14.00">source</text>
</g>
<!-- file&#45;&gt;source -->
<g id="edge8" class="edge"><title>file&#45;&gt;source</title>
<path fill="none" stroke="black" d="M361.844,-157.875C413.304,-151.465 529.502,-135.106 624.147,-108 626.735,-107.259 629.382,-106.42 632.03,-105.522"/>
<polygon fill="black" stroke="black" points="633.304,-108.783 641.508,-102.08 630.914,-102.204 633.304,-108.783"/>
</g>
<!-- ensure&#45;&gt;file -->
<g id="edge11" class="edge"><title>ensure&#45;&gt;file</title>
<path fill="none" stroke="black" d="M196.626,-100.558C226.644,-112.262 274.26,-132.223 305.195,-145.984"/>
<polygon fill="black" stroke="black" points="304.053,-149.308 314.609,-150.216 306.923,-142.924 304.053,-149.308"/>
</g>
<!-- absent -->
<g id="node10" class="node"><title>absent</title>
<ellipse fill="none" stroke="black" cx="33.1471" cy="-18" rx="33.2948" ry="18"/>
<text text-anchor="middle" x="33.1471" y="-14.3" font-family="Times,serif" font-size="14.00">absent</text>
</g>
<!-- ensure&#45;&gt;absent -->
<g id="edge9" class="edge"><title>ensure&#45;&gt;absent</title>
<path fill="none" stroke="black" d="M145.768,-76.9666C123.679,-65.5975 90.3447,-48.44 65.6684,-35.7389"/>
<polygon fill="black" stroke="black" points="67.1695,-32.5752 56.6763,-31.1107 63.9659,-38.7991 67.1695,-32.5752"/>
</g>
<!-- present -->
<g id="node11" class="node"><title>present</title>
<ellipse fill="none" stroke="black" cx="121.147" cy="-18" rx="36.2938" ry="18"/>
<text text-anchor="middle" x="121.147" y="-14.3" font-family="Times,serif" font-size="14.00">present</text>
</g>
<!-- ensure&#45;&gt;present -->
<g id="edge10" class="edge"><title>ensure&#45;&gt;present</title>
<path fill="none" stroke="black" d="M158.014,-72.7646C152.077,-64.1064 144.649,-53.2731 138.018,-43.604"/>
<polygon fill="black" stroke="black" points="140.761,-41.4152 132.219,-35.1473 134.988,-45.374 140.761,-41.4152"/>
</g>
<!-- directory -->
<g id="node12" class="node"><title>directory</title>
<ellipse fill="none" stroke="black" cx="218.147" cy="-18" rx="42.4939" ry="18"/>
<text text-anchor="middle" x="218.147" y="-14.3" font-family="Times,serif" font-size="14.00">directory</text>
</g>
<!-- ensure&#45;&gt;directory -->
<g id="edge12" class="edge"><title>ensure&#45;&gt;directory</title>
<path fill="none" stroke="black" d="M180.512,-72.7646C186.486,-64.2301 193.94,-53.5822 200.634,-44.0191"/>
<polygon fill="black" stroke="black" points="203.636,-45.8329 206.504,-35.6334 197.902,-41.8186 203.636,-45.8329"/>
</g>
<!-- link -->
<g id="node13" class="node"><title>link</title>
<ellipse fill="none" stroke="black" cx="305.147" cy="-18" rx="27" ry="18"/>
<text text-anchor="middle" x="305.147" y="-14.3" font-family="Times,serif" font-size="14.00">link</text>
</g>
<!-- ensure&#45;&gt;link -->
<g id="edge13" class="edge"><title>ensure&#45;&gt;link</title>
<path fill="none" stroke="black" d="M192.526,-76.9666C215.423,-65.1816 250.404,-47.1768 275.298,-34.3633"/>
<polygon fill="black" stroke="black" points="277.01,-37.4188 284.3,-29.7304 273.806,-31.1949 277.01,-37.4188"/>
</g>
<!-- a file -->
<g id="node14" class="node"><title>a file</title>
<ellipse fill="none" stroke="black" cx="537.147" cy="-18" rx="28.6953" ry="18"/>
<text text-anchor="middle" x="537.147" y="-14.3" font-family="Times,serif" font-size="14.00">a file</text>
</g>
<!-- content&#45;&gt;a file -->
<g id="edge14" class="edge"><title>content&#45;&gt;a file</title>
<path fill="none" stroke="black" d="M569.194,-72.411C564.046,-63.8323 557.662,-53.1908 551.949,-43.6695"/>
<polygon fill="black" stroke="black" points="554.886,-41.7623 546.74,-34.9881 548.884,-45.3638 554.886,-41.7623"/>
</g>
<!-- a string -->
<g id="node15" class="node"><title>a string</title>
<ellipse fill="none" stroke="black" cx="621.147" cy="-18" rx="37.0935" ry="18"/>
<text text-anchor="middle" x="621.147" y="-14.3" font-family="Times,serif" font-size="14.00">a string</text>
</g>
<!-- content&#45;&gt;a string -->
<g id="edge15" class="edge"><title>content&#45;&gt;a string</title>
<path fill="none" stroke="black" d="M589.1,-72.411C594.174,-63.9549 600.45,-53.4944 606.1,-44.0783"/>
<polygon fill="black" stroke="black" points="609.121,-45.8456 611.265,-35.4699 603.119,-42.2441 609.121,-45.8456"/>
</g>
</g>
</svg>
