<?xml version="1.0" encoding="UTF-8" standalone="no"?>
<!DOCTYPE svg PUBLIC "-//W3C//DTD SVG 1.1//EN"
 "http://www.w3.org/Graphics/SVG/1.1/DTD/svg11.dtd">
<!-- Generated by graphviz version 2.38.0 (20140413.2041)
 -->
<!-- Title: G Pages: 1 -->
<svg width="841pt" height="564pt"
 viewBox="0.00 0.00 841.00 564.00" xmlns="http://www.w3.org/2000/svg" xmlns:xlink="http://www.w3.org/1999/xlink">
<g id="graph0" class="graph" transform="scale(1 1) rotate(0) translate(4 560)">
<title>G</title>
<polygon fill="white" stroke="none" points="-4,4 -4,-560 837,-560 837,4 -4,4"/>
<g id="clust1" class="cluster"><title>cluster_ctl</title>
<polygon fill="none" stroke="black" points="8,-380 8,-512 370,-512 370,-380 8,-380"/>
<text text-anchor="middle" x="189" y="-496.8" font-family="Times,serif" font-size="14.00" fill="red">int epoll_ctl(int epfd, int op, int fd, struct epoll_event* events);</text>
</g>
<g id="clust2" class="cluster"><title>cluster_wait</title>
<polygon fill="none" stroke="black" points="378,-380 378,-512 825,-512 825,-380 378,-380"/>
<text text-anchor="middle" x="601.5" y="-496.8" font-family="Times,serif" font-size="14.00" fill="red">int epoll_wait(int epfd, struct epoll_event* events, int maxevents, int timeout);</text>
</g>
<g id="clust3" class="cluster"><title>cluster_event</title>
<polygon fill="none" stroke="black" points="307,-274.5 307,-360.5 437,-360.5 437,-274.5 307,-274.5"/>
<text text-anchor="middle" x="372" y="-345.3" font-family="Times,serif" font-size="14.00" fill="blue">struct epoll_event</text>
</g>
<g id="clust4" class="cluster"><title>cluster_data</title>
<polygon fill="none" stroke="black" points="252,-65.5 252,-197.5 359,-197.5 359,-65.5 252,-65.5"/>
<text text-anchor="middle" x="305.5" y="-182.3" font-family="Times,serif" font-size="14.00" fill="blue">struct epoll_data</text>
</g>
<g id="clust5" class="cluster"><title>cluster_events</title>
<polygon fill="none" stroke="black" points="367,-8 367,-255 505,-255 505,-8 367,-8"/>
<text text-anchor="middle" x="436" y="-239.8" font-family="Times,serif" font-size="14.00" fill="green">event values</text>
</g>
<g id="clust6" class="cluster"><title>cluster_ops</title>
<polygon fill="none" stroke="black" points="153,-263 153,-372 299,-372 299,-263 153,-263"/>
<text text-anchor="middle" x="226" y="-356.8" font-family="Times,serif" font-size="14.00" fill="green">ops</text>
</g>
<g id="clust7" class="cluster"><title>cluster_timeout</title>
<polygon fill="none" stroke="black" points="445,-263 445,-372 597,-372 597,-263 445,-263"/>
<text text-anchor="middle" x="521" y="-356.8" font-family="Times,serif" font-size="14.00" fill="green">timeout value</text>
</g>
<!-- create -->
<g id="node1" class="node"><title>create</title>
<path fill="none" stroke="black" d="M449.5,-556C449.5,-556 298.5,-556 298.5,-556 292.5,-556 286.5,-550 286.5,-544 286.5,-544 286.5,-532 286.5,-532 286.5,-526 292.5,-520 298.5,-520 298.5,-520 449.5,-520 449.5,-520 455.5,-520 461.5,-526 461.5,-532 461.5,-532 461.5,-544 461.5,-544 461.5,-550 455.5,-556 449.5,-556"/>
<text text-anchor="middle" x="374" y="-534.2" font-family="Times,serif" font-size="16.00" fill="red">int epoll_create(int size);</text>
</g>
<!-- ctl_params -->
<g id="node2" class="node"><title>ctl_params</title>
<path fill="none" stroke="black" d="M216,-388.5C216,-388.5 350,-388.5 350,-388.5 356,-388.5 362,-394.5 362,-400.5 362,-400.5 362,-468.5 362,-468.5 362,-474.5 356,-480.5 350,-480.5 350,-480.5 216,-480.5 216,-480.5 210,-480.5 204,-474.5 204,-468.5 204,-468.5 204,-400.5 204,-400.5 204,-394.5 210,-388.5 216,-388.5"/>
<text text-anchor="middle" x="283" y="-465.3" font-family="Times,serif" font-size="14.00">int epfd</text>
<polyline fill="none" stroke="black" points="204,-457.5 362,-457.5 "/>
<text text-anchor="middle" x="283" y="-442.3" font-family="Times,serif" font-size="14.00">int op</text>
<polyline fill="none" stroke="black" points="204,-434.5 362,-434.5 "/>
<text text-anchor="middle" x="283" y="-419.3" font-family="Times,serif" font-size="14.00">int fd</text>
<polyline fill="none" stroke="black" points="204,-411.5 362,-411.5 "/>
<text text-anchor="middle" x="283" y="-396.3" font-family="Times,serif" font-size="14.00">struct epoll_event* events</text>
</g>
<!-- create&#45;&gt;ctl_params -->
<g id="edge7" class="edge"><title>create&#45;&gt;ctl_params:f0</title>
<path fill="none" stroke="black" d="M372.873,-519.967C371.851,-506.844 370.117,-489.211 367.603,-478.638"/>
<polygon fill="black" stroke="black" points="370.625,-476.856 363,-469.5 364.373,-480.006 370.625,-476.856"/>
</g>
<!-- wait_params -->
<g id="node3" class="node"><title>wait_params</title>
<path fill="none" stroke="black" d="M398,-388.5C398,-388.5 532,-388.5 532,-388.5 538,-388.5 544,-394.5 544,-400.5 544,-400.5 544,-468.5 544,-468.5 544,-474.5 538,-480.5 532,-480.5 532,-480.5 398,-480.5 398,-480.5 392,-480.5 386,-474.5 386,-468.5 386,-468.5 386,-400.5 386,-400.5 386,-394.5 392,-388.5 398,-388.5"/>
<text text-anchor="middle" x="465" y="-465.3" font-family="Times,serif" font-size="14.00">int epfd</text>
<polyline fill="none" stroke="black" points="386,-457.5 544,-457.5 "/>
<text text-anchor="middle" x="465" y="-442.3" font-family="Times,serif" font-size="14.00">struct epoll_event* events</text>
<polyline fill="none" stroke="black" points="386,-434.5 544,-434.5 "/>
<text text-anchor="middle" x="465" y="-419.3" font-family="Times,serif" font-size="14.00">int maxevents</text>
<polyline fill="none" stroke="black" points="386,-411.5 544,-411.5 "/>
<text text-anchor="middle" x="465" y="-396.3" font-family="Times,serif" font-size="14.00">int timeout</text>
</g>
<!-- create&#45;&gt;wait_params -->
<g id="edge8" class="edge"><title>create&#45;&gt;wait_params:f0</title>
<path fill="none" stroke="black" d="M375.127,-519.967C376.149,-506.844 377.883,-489.211 380.397,-478.638"/>
<polygon fill="black" stroke="black" points="383.627,-480.006 385,-469.5 377.375,-476.856 383.627,-480.006"/>
</g>
<!-- struct_event -->
<g id="node4" class="node"><title>struct_event</title>
<path fill="none" stroke="black" d="M327.5,-283C327.5,-283 416.5,-283 416.5,-283 422.5,-283 428.5,-289 428.5,-295 428.5,-295 428.5,-317 428.5,-317 428.5,-323 422.5,-329 416.5,-329 416.5,-329 327.5,-329 327.5,-329 321.5,-329 315.5,-323 315.5,-317 315.5,-317 315.5,-295 315.5,-295 315.5,-289 321.5,-283 327.5,-283"/>
<text text-anchor="middle" x="372" y="-313.8" font-family="Times,serif" font-size="14.00">uint32_t events;</text>
<polyline fill="none" stroke="black" points="315.5,-306 428.5,-306 "/>
<text text-anchor="middle" x="372" y="-290.8" font-family="Times,serif" font-size="14.00">epoll_data_t data;</text>
</g>
<!-- ctl_params&#45;&gt;struct_event -->
<g id="edge4" class="edge"><title>ctl_params:f2&#45;&gt;struct_event</title>
<path fill="none" stroke="black" d="M363,-399.5C375.392,-399.5 376.153,-366.196 374.78,-339.555"/>
<polygon fill="black" stroke="black" points="378.261,-339.153 374.142,-329.392 371.275,-339.591 378.261,-339.153"/>
</g>
<!-- ops -->
<g id="node7" class="node"><title>ops</title>
<path fill="none" stroke="black" d="M173,-271.5C173,-271.5 279,-271.5 279,-271.5 285,-271.5 291,-277.5 291,-283.5 291,-283.5 291,-328.5 291,-328.5 291,-334.5 285,-340.5 279,-340.5 279,-340.5 173,-340.5 173,-340.5 167,-340.5 161,-334.5 161,-328.5 161,-328.5 161,-283.5 161,-283.5 161,-277.5 167,-271.5 173,-271.5"/>
<text text-anchor="middle" x="226" y="-325.3" font-family="Times,serif" font-size="14.00">EPOLL_CTL_ADD</text>
<polyline fill="none" stroke="black" points="161,-317.5 291,-317.5 "/>
<text text-anchor="middle" x="226" y="-302.3" font-family="Times,serif" font-size="14.00">EPOLL_CTL_MOD</text>
<polyline fill="none" stroke="black" points="161,-294.5 291,-294.5 "/>
<text text-anchor="middle" x="226" y="-279.3" font-family="Times,serif" font-size="14.00">EPOLL_CTL_DEL</text>
</g>
<!-- ctl_params&#45;&gt;ops -->
<g id="edge3" class="edge"><title>ctl_params:f1&#45;&gt;ops</title>
<path fill="none" stroke="black" d="M203,-446.5C163.293,-446.5 182.952,-390.799 202.804,-349.791"/>
<polygon fill="black" stroke="black" points="205.971,-351.282 207.286,-340.769 199.702,-348.167 205.971,-351.282"/>
</g>
<!-- wait_params&#45;&gt;struct_event -->
<g id="edge5" class="edge"><title>wait_params:f1&#45;&gt;struct_event</title>
<path fill="none" stroke="black" d="M385,-446.5C379.644,-446.5 375.503,-380.441 373.442,-339.239"/>
<polygon fill="black" stroke="black" points="376.931,-338.923 372.951,-329.104 369.939,-339.262 376.931,-338.923"/>
</g>
<!-- timeout -->
<g id="node8" class="node"><title>timeout</title>
<path fill="none" stroke="black" d="M465,-271.5C465,-271.5 577,-271.5 577,-271.5 583,-271.5 589,-277.5 589,-283.5 589,-283.5 589,-328.5 589,-328.5 589,-334.5 583,-340.5 577,-340.5 577,-340.5 465,-340.5 465,-340.5 459,-340.5 453,-334.5 453,-328.5 453,-328.5 453,-283.5 453,-283.5 453,-277.5 459,-271.5 465,-271.5"/>
<text text-anchor="middle" x="521" y="-325.3" font-family="Times,serif" font-size="14.00">&gt;0, milliseconds</text>
<polyline fill="none" stroke="black" points="453,-317.5 589,-317.5 "/>
<text text-anchor="middle" x="521" y="-302.3" font-family="Times,serif" font-size="14.00">0, return immediately</text>
<polyline fill="none" stroke="black" points="453,-294.5 589,-294.5 "/>
<text text-anchor="middle" x="521" y="-279.3" font-family="Times,serif" font-size="14.00">&#45;1, block infinitely</text>
</g>
<!-- wait_params&#45;&gt;timeout -->
<g id="edge6" class="edge"><title>wait_params:f3&#45;&gt;timeout</title>
<path fill="none" stroke="black" d="M545,-399.5C567.386,-399.5 559.507,-373.803 547.047,-349.498"/>
<polygon fill="black" stroke="black" points="550.113,-347.809 542.297,-340.656 543.947,-351.122 550.113,-347.809"/>
</g>
<!-- struct_data -->
<g id="node5" class="node"><title>struct_data</title>
<path fill="none" stroke="black" d="M274.5,-74C274.5,-74 339.5,-74 339.5,-74 345.5,-74 351.5,-80 351.5,-86 351.5,-86 351.5,-154 351.5,-154 351.5,-160 345.5,-166 339.5,-166 339.5,-166 274.5,-166 274.5,-166 268.5,-166 262.5,-160 262.5,-154 262.5,-154 262.5,-86 262.5,-86 262.5,-80 268.5,-74 274.5,-74"/>
<text text-anchor="middle" x="307" y="-150.8" font-family="Times,serif" font-size="14.00">void* ptr;</text>
<polyline fill="none" stroke="black" points="262.5,-143 351.5,-143 "/>
<text text-anchor="middle" x="307" y="-127.8" font-family="Times,serif" font-size="14.00">int fd;</text>
<polyline fill="none" stroke="black" points="262.5,-120 351.5,-120 "/>
<text text-anchor="middle" x="307" y="-104.8" font-family="Times,serif" font-size="14.00">uint32_t u32;</text>
<polyline fill="none" stroke="black" points="262.5,-97 351.5,-97 "/>
<text text-anchor="middle" x="307" y="-81.8" font-family="Times,serif" font-size="14.00">uint64_t u64;</text>
</g>
<!-- struct_event&#45;&gt;struct_data -->
<g id="edge2" class="edge"><title>struct_event:f1&#45;&gt;struct_data</title>
<path fill="none" stroke="black" d="M314,-294C302.013,-294 302.246,-226.835 304.125,-176.204"/>
<polygon fill="black" stroke="black" points="307.63,-176.134 304.533,-166.002 300.636,-175.854 307.63,-176.134"/>
</g>
<!-- evs -->
<g id="node6" class="node"><title>evs</title>
<path fill="none" stroke="black" d="M387,-16.5C387,-16.5 485,-16.5 485,-16.5 491,-16.5 497,-22.5 497,-28.5 497,-28.5 497,-211.5 497,-211.5 497,-217.5 491,-223.5 485,-223.5 485,-223.5 387,-223.5 387,-223.5 381,-223.5 375,-217.5 375,-211.5 375,-211.5 375,-28.5 375,-28.5 375,-22.5 381,-16.5 387,-16.5"/>
<text text-anchor="middle" x="436" y="-208.3" font-family="Times,serif" font-size="14.00">EPOLLIN</text>
<polyline fill="none" stroke="black" points="375,-200.5 497,-200.5 "/>
<text text-anchor="middle" x="436" y="-185.3" font-family="Times,serif" font-size="14.00">EPOLLOUT</text>
<polyline fill="none" stroke="black" points="375,-177.5 497,-177.5 "/>
<text text-anchor="middle" x="436" y="-162.3" font-family="Times,serif" font-size="14.00">EPOLLRDHUP</text>
<polyline fill="none" stroke="black" points="375,-154.5 497,-154.5 "/>
<text text-anchor="middle" x="436" y="-139.3" font-family="Times,serif" font-size="14.00">EPOLLPRI</text>
<polyline fill="none" stroke="black" points="375,-131.5 497,-131.5 "/>
<text text-anchor="middle" x="436" y="-116.3" font-family="Times,serif" font-size="14.00">EPOLLER</text>
<polyline fill="none" stroke="black" points="375,-108.5 497,-108.5 "/>
<text text-anchor="middle" x="436" y="-93.3" font-family="Times,serif" font-size="14.00">EPOLLHUP</text>
<polyline fill="none" stroke="black" points="375,-85.5 497,-85.5 "/>
<text text-anchor="middle" x="436" y="-70.3" font-family="Times,serif" font-size="14.00">EPOLLET</text>
<polyline fill="none" stroke="black" points="375,-62.5 497,-62.5 "/>
<text text-anchor="middle" x="436" y="-47.3" font-family="Times,serif" font-size="14.00">EPOLLONESHOT</text>
<polyline fill="none" stroke="black" points="375,-39.5 497,-39.5 "/>
<text text-anchor="middle" x="436" y="-24.3" font-family="Times,serif" font-size="14.00">EPOLLWAKEUP</text>
</g>
<!-- struct_event&#45;&gt;evs -->
<g id="edge1" class="edge"><title>struct_event:f0&#45;&gt;evs</title>
<path fill="none" stroke="black" d="M430,-318C434.951,-318 436.651,-277.728 437.028,-233.601"/>
<polygon fill="black" stroke="black" points="440.529,-233.561 437.092,-223.539 433.529,-233.517 440.529,-233.561"/>
</g>
</g>
</svg>
