<?xml version="1.0" encoding="UTF-8" standalone="no"?>
<!DOCTYPE svg PUBLIC "-//W3C//DTD SVG 1.1//EN"
 "http://www.w3.org/Graphics/SVG/1.1/DTD/svg11.dtd">
<!-- Generated by graphviz version 2.38.0 (20140413.2041)
 -->
<!-- Title: user Pages: 1 -->
<svg width="831pt" height="116pt"
 viewBox="0.00 0.00 831.04 116.00" xmlns="http://www.w3.org/2000/svg" xmlns:xlink="http://www.w3.org/1999/xlink">
<g id="graph0" class="graph" transform="scale(1 1) rotate(0) translate(4 112)">
<title>user</title>
<polygon fill="white" stroke="none" points="-4,4 -4,-112 827.043,-112 827.043,4 -4,4"/>
<!-- user -->
<g id="node1" class="node"><title>user</title>
<ellipse fill="none" stroke="black" cx="401.296" cy="-90" rx="27" ry="18"/>
<text text-anchor="middle" x="401.296" y="-86.3" font-family="Times,serif" font-size="14.00">user</text>
</g>
<!-- provider -->
<g id="node2" class="node"><title>provider</title>
<ellipse fill="none" stroke="black" cx="40.2964" cy="-18" rx="40.0939" ry="18"/>
<text text-anchor="middle" x="40.2964" y="-14.3" font-family="Times,serif" font-size="14.00">provider</text>
</g>
<!-- user&#45;&gt;provider -->
<g id="edge1" class="edge"><title>user&#45;&gt;provider</title>
<path fill="none" stroke="black" d="M374.689,-85.9907C320.43,-79.5242 193.341,-62.6894 89.2964,-36 86.1565,-35.1946 82.9307,-34.2795 79.7053,-33.3015"/>
<polygon fill="black" stroke="black" points="80.7074,-29.9473 70.1162,-30.2256 78.5693,-36.6128 80.7074,-29.9473"/>
</g>
<!-- ensure -->
<g id="node3" class="node"><title>ensure</title>
<ellipse fill="none" stroke="black" cx="132.296" cy="-18" rx="33.5952" ry="18"/>
<text text-anchor="middle" x="132.296" y="-14.3" font-family="Times,serif" font-size="14.00">ensure</text>
</g>
<!-- user&#45;&gt;ensure -->
<g id="edge2" class="edge"><title>user&#45;&gt;ensure</title>
<path fill="none" stroke="black" d="M375.413,-84.3168C332.899,-76.323 245.858,-58.6857 174.296,-36 172.019,-35.278 169.69,-34.4879 167.355,-33.6562"/>
<polygon fill="black" stroke="black" points="168.423,-30.3184 157.831,-30.0697 165.956,-36.8693 168.423,-30.3184"/>
</g>
<!-- name -->
<g id="node4" class="node"><title>name</title>
<ellipse fill="none" stroke="black" cx="214.296" cy="-18" rx="30.5947" ry="18"/>
<text text-anchor="middle" x="214.296" y="-14.3" font-family="Times,serif" font-size="14.00">name</text>
</g>
<!-- user&#45;&gt;name -->
<g id="edge3" class="edge"><title>user&#45;&gt;name</title>
<path fill="none" stroke="black" d="M377.723,-80.9559C348.562,-70.9011 297.481,-52.9464 254.296,-36 252.104,-35.1395 249.851,-34.236 247.585,-33.3129"/>
<polygon fill="black" stroke="black" points="248.898,-30.0684 238.32,-29.467 246.214,-36.5335 248.898,-30.0684"/>
</g>
<!-- uid -->
<g id="node5" class="node"><title>uid</title>
<ellipse fill="none" stroke="black" cx="290.296" cy="-18" rx="27" ry="18"/>
<text text-anchor="middle" x="290.296" y="-14.3" font-family="Times,serif" font-size="14.00">uid</text>
</g>
<!-- user&#45;&gt;uid -->
<g id="edge4" class="edge"><title>user&#45;&gt;uid</title>
<path fill="none" stroke="black" d="M382.215,-76.9666C364.584,-65.8479 338.174,-49.193 318.181,-36.5846"/>
<polygon fill="black" stroke="black" points="319.826,-33.4844 309.5,-31.1107 316.092,-39.4054 319.826,-33.4844"/>
</g>
<!-- gid -->
<g id="node6" class="node"><title>gid</title>
<ellipse fill="none" stroke="black" cx="362.296" cy="-18" rx="27" ry="18"/>
<text text-anchor="middle" x="362.296" y="-14.3" font-family="Times,serif" font-size="14.00">gid</text>
</g>
<!-- user&#45;&gt;gid -->
<g id="edge5" class="edge"><title>user&#45;&gt;gid</title>
<path fill="none" stroke="black" d="M392.251,-72.7646C387.476,-64.1948 381.515,-53.494 376.169,-43.9004"/>
<polygon fill="black" stroke="black" points="379.217,-42.1795 371.293,-35.1473 373.102,-45.5865 379.217,-42.1795"/>
</g>
<!-- groups -->
<g id="node7" class="node"><title>groups</title>
<ellipse fill="none" stroke="black" cx="441.296" cy="-18" rx="34.394" ry="18"/>
<text text-anchor="middle" x="441.296" y="-14.3" font-family="Times,serif" font-size="14.00">groups</text>
</g>
<!-- user&#45;&gt;groups -->
<g id="edge6" class="edge"><title>user&#45;&gt;groups</title>
<path fill="none" stroke="black" d="M410.574,-72.7646C415.351,-64.4043 421.287,-54.0159 426.664,-44.6059"/>
<polygon fill="black" stroke="black" points="429.869,-46.0523 431.792,-35.6334 423.791,-42.5793 429.869,-46.0523"/>
</g>
<!-- home -->
<g id="node8" class="node"><title>home</title>
<ellipse fill="none" stroke="black" cx="524.296" cy="-18" rx="30.5947" ry="18"/>
<text text-anchor="middle" x="524.296" y="-14.3" font-family="Times,serif" font-size="14.00">home</text>
</g>
<!-- user&#45;&gt;home -->
<g id="edge7" class="edge"><title>user&#45;&gt;home</title>
<path fill="none" stroke="black" d="M421.332,-77.5975C441.076,-66.3611 471.492,-49.0511 494.154,-36.1544"/>
<polygon fill="black" stroke="black" points="496.071,-39.0907 503.031,-31.1026 492.608,-33.0069 496.071,-39.0907"/>
</g>
<!-- password -->
<g id="node9" class="node"><title>password</title>
<ellipse fill="none" stroke="black" cx="617.296" cy="-18" rx="44.393" ry="18"/>
<text text-anchor="middle" x="617.296" y="-14.3" font-family="Times,serif" font-size="14.00">password</text>
</g>
<!-- user&#45;&gt;password -->
<g id="edge8" class="edge"><title>user&#45;&gt;password</title>
<path fill="none" stroke="black" d="M425.237,-81.2413C461.081,-69.6255 529.251,-47.5333 573.981,-33.0373"/>
<polygon fill="black" stroke="black" points="575.27,-36.299 583.704,-29.8865 573.112,-29.6399 575.27,-36.299"/>
</g>
<!-- shell -->
<g id="node10" class="node"><title>shell</title>
<ellipse fill="none" stroke="black" cx="706.296" cy="-18" rx="27.0966" ry="18"/>
<text text-anchor="middle" x="706.296" y="-14.3" font-family="Times,serif" font-size="14.00">shell</text>
</g>
<!-- user&#45;&gt;shell -->
<g id="edge9" class="edge"><title>user&#45;&gt;shell</title>
<path fill="none" stroke="black" d="M427.813,-85.98C476.701,-79.9316 583.936,-64.4136 670.296,-36 672.168,-35.3844 674.068,-34.6951 675.969,-33.9562"/>
<polygon fill="black" stroke="black" points="677.509,-37.1046 685.332,-29.9598 674.761,-30.6665 677.509,-37.1046"/>
</g>
<!-- system -->
<g id="node11" class="node"><title>system</title>
<ellipse fill="none" stroke="black" cx="787.296" cy="-18" rx="35.9954" ry="18"/>
<text text-anchor="middle" x="787.296" y="-14.3" font-family="Times,serif" font-size="14.00">system</text>
</g>
<!-- user&#45;&gt;system -->
<g id="edge10" class="edge"><title>user&#45;&gt;system</title>
<path fill="none" stroke="black" d="M428.212,-86.7267C486.331,-81.404 627.587,-66.2324 742.296,-36 745.098,-35.2617 747.966,-34.4114 750.832,-33.4929"/>
<polygon fill="black" stroke="black" points="752.151,-36.7402 760.464,-30.1716 749.869,-30.1226 752.151,-36.7402"/>
</g>
</g>
</svg>
