<?xml version="1.0" encoding="UTF-8" standalone="no"?>
<!DOCTYPE svg PUBLIC "-//W3C//DTD SVG 1.1//EN"
 "http://www.w3.org/Graphics/SVG/1.1/DTD/svg11.dtd">
<!-- Generated by graphviz version 2.38.0 (20140413.2041)
 -->
<!-- Title: G Pages: 1 -->
<svg width="830pt" height="147pt"
 viewBox="0.00 0.00 830.00 147.00" xmlns="http://www.w3.org/2000/svg" xmlns:xlink="http://www.w3.org/1999/xlink">
<g id="graph0" class="graph" transform="scale(1 1) rotate(0) translate(4 143)">
<title>G</title>
<polygon fill="white" stroke="none" points="-4,4 -4,-143 826,-143 826,4 -4,4"/>
<!-- moneny -->
<g id="node1" class="node"><title>moneny</title>
<path fill="none" stroke="black" d="M12,-23.5C12,-23.5 90,-23.5 90,-23.5 96,-23.5 102,-29.5 102,-35.5 102,-35.5 102,-103.5 102,-103.5 102,-109.5 96,-115.5 90,-115.5 90,-115.5 12,-115.5 12,-115.5 6,-115.5 -7.10543e-15,-109.5 -7.10543e-15,-103.5 -7.10543e-15,-103.5 -7.10543e-15,-35.5 -7.10543e-15,-35.5 -7.10543e-15,-29.5 6,-23.5 12,-23.5"/>
<text text-anchor="middle" x="51" y="-100.3" font-family="WenQuanYi Micro Hei Mono" font-size="14.00"> </text>
<polyline fill="none" stroke="black" points="-7.10543e-15,-92.5 102,-92.5 "/>
<text text-anchor="middle" x="51" y="-77.3" font-family="WenQuanYi Micro Hei Mono" font-size="14.00">利率</text>
<polyline fill="none" stroke="black" points="-7.10543e-15,-69.5 102,-69.5 "/>
<text text-anchor="middle" x="51" y="-54.3" font-family="WenQuanYi Micro Hei Mono" font-size="14.00">再贴现率</text>
<polyline fill="none" stroke="black" points="-7.10543e-15,-46.5 102,-46.5 "/>
<text text-anchor="middle" x="51" y="-31.3" font-family="WenQuanYi Micro Hei Mono" font-size="14.00">法定准备金率</text>
</g>
<!-- capital -->
<g id="node2" class="node"><title>capital</title>
<path fill="none" stroke="black" d="M132,-12C132,-12 196,-12 196,-12 202,-12 208,-18 208,-24 208,-24 208,-115 208,-115 208,-121 202,-127 196,-127 196,-127 132,-127 132,-127 126,-127 120,-121 120,-115 120,-115 120,-24 120,-24 120,-18 126,-12 132,-12"/>
<text text-anchor="middle" x="164" y="-111.8" font-family="WenQuanYi Micro Hei Mono" font-size="14.00"> </text>
<polyline fill="none" stroke="black" points="120,-104 208,-104 "/>
<text text-anchor="middle" x="164" y="-88.8" font-family="WenQuanYi Micro Hei Mono" font-size="14.00">金融杠杆率</text>
<polyline fill="none" stroke="black" points="120,-81 208,-81 "/>
<text text-anchor="middle" x="164" y="-65.8" font-family="WenQuanYi Micro Hei Mono" font-size="14.00">不良贷款率</text>
<polyline fill="none" stroke="black" points="120,-58 208,-58 "/>
<text text-anchor="middle" x="164" y="-42.8" font-family="WenQuanYi Micro Hei Mono" font-size="14.00">资本收益率</text>
<polyline fill="none" stroke="black" points="120,-35 208,-35 "/>
<text text-anchor="middle" x="164" y="-19.8" font-family="WenQuanYi Micro Hei Mono" font-size="14.00">流动性比率</text>
</g>
<!-- stack -->
<g id="node3" class="node"><title>stack</title>
<path fill="none" stroke="black" d="M238,-35C238,-35 316,-35 316,-35 322,-35 328,-41 328,-47 328,-47 328,-92 328,-92 328,-98 322,-104 316,-104 316,-104 238,-104 238,-104 232,-104 226,-98 226,-92 226,-92 226,-47 226,-47 226,-41 232,-35 238,-35"/>
<text text-anchor="middle" x="277" y="-88.8" font-family="WenQuanYi Micro Hei Mono" font-size="14.00"> </text>
<polyline fill="none" stroke="black" points="226,-81 328,-81 "/>
<text text-anchor="middle" x="277" y="-65.8" font-family="WenQuanYi Micro Hei Mono" font-size="14.00">市盈率</text>
<polyline fill="none" stroke="black" points="226,-58 328,-58 "/>
<text text-anchor="middle" x="277" y="-42.8" font-family="WenQuanYi Micro Hei Mono" font-size="14.00">商品期货指数</text>
</g>
<!-- trade -->
<g id="node4" class="node"><title>trade</title>
<path fill="none" stroke="black" d="M358,-0.5C358,-0.5 450,-0.5 450,-0.5 456,-0.5 462,-6.5 462,-12.5 462,-12.5 462,-126.5 462,-126.5 462,-132.5 456,-138.5 450,-138.5 450,-138.5 358,-138.5 358,-138.5 352,-138.5 346,-132.5 346,-126.5 346,-126.5 346,-12.5 346,-12.5 346,-6.5 352,-0.5 358,-0.5"/>
<text text-anchor="middle" x="404" y="-123.3" font-family="WenQuanYi Micro Hei Mono" font-size="14.00"> </text>
<polyline fill="none" stroke="black" points="346,-115.5 462,-115.5 "/>
<text text-anchor="middle" x="404" y="-100.3" font-family="WenQuanYi Micro Hei Mono" font-size="14.00">汇率</text>
<polyline fill="none" stroke="black" points="346,-92.5 462,-92.5 "/>
<text text-anchor="middle" x="404" y="-77.3" font-family="WenQuanYi Micro Hei Mono" font-size="14.00">对外贸易依存率</text>
<polyline fill="none" stroke="black" points="346,-69.5 462,-69.5 "/>
<text text-anchor="middle" x="404" y="-54.3" font-family="WenQuanYi Micro Hei Mono" font-size="14.00">外汇储备</text>
<polyline fill="none" stroke="black" points="346,-46.5 462,-46.5 "/>
<text text-anchor="middle" x="404" y="-31.3" font-family="WenQuanYi Micro Hei Mono" font-size="14.00">进出口退税</text>
<polyline fill="none" stroke="black" points="346,-23.5 462,-23.5 "/>
<text text-anchor="middle" x="404" y="-8.3" font-family="WenQuanYi Micro Hei Mono" font-size="14.00">外商直接投资</text>
</g>
<!-- consume -->
<g id="node5" class="node"><title>consume</title>
<path fill="none" stroke="black" d="M492,-35C492,-35 584,-35 584,-35 590,-35 596,-41 596,-47 596,-47 596,-92 596,-92 596,-98 590,-104 584,-104 584,-104 492,-104 492,-104 486,-104 480,-98 480,-92 480,-92 480,-47 480,-47 480,-41 486,-35 492,-35"/>
<text text-anchor="middle" x="538" y="-88.8" font-family="WenQuanYi Micro Hei Mono" font-size="14.00"> </text>
<polyline fill="none" stroke="black" points="480,-81 596,-81 "/>
<text text-anchor="middle" x="538" y="-65.8" font-family="WenQuanYi Micro Hei Mono" font-size="14.00">消费者信心指数</text>
<polyline fill="none" stroke="black" points="480,-58 596,-58 "/>
<text text-anchor="middle" x="538" y="-42.8" font-family="WenQuanYi Micro Hei Mono" font-size="14.00">储蓄率</text>
</g>
<!-- human -->
<g id="node6" class="node"><title>human</title>
<path fill="none" stroke="black" d="M626,-35C626,-35 704,-35 704,-35 710,-35 716,-41 716,-47 716,-47 716,-92 716,-92 716,-98 710,-104 704,-104 704,-104 626,-104 626,-104 620,-104 614,-98 614,-92 614,-92 614,-47 614,-47 614,-41 620,-35 626,-35"/>
<text text-anchor="middle" x="665" y="-88.8" font-family="WenQuanYi Micro Hei Mono" font-size="14.00"> </text>
<polyline fill="none" stroke="black" points="614,-81 716,-81 "/>
<text text-anchor="middle" x="665" y="-65.8" font-family="WenQuanYi Micro Hei Mono" font-size="14.00">抚养比</text>
<polyline fill="none" stroke="black" points="614,-58 716,-58 "/>
<text text-anchor="middle" x="665" y="-42.8" font-family="WenQuanYi Micro Hei Mono" font-size="14.00">平均预期寿命</text>
</g>
<!-- finance -->
<g id="node7" class="node"><title>finance</title>
<path fill="none" stroke="black" d="M746,-12C746,-12 810,-12 810,-12 816,-12 822,-18 822,-24 822,-24 822,-115 822,-115 822,-121 816,-127 810,-127 810,-127 746,-127 746,-127 740,-127 734,-121 734,-115 734,-115 734,-24 734,-24 734,-18 740,-12 746,-12"/>
<text text-anchor="middle" x="778" y="-111.8" font-family="WenQuanYi Micro Hei Mono" font-size="14.00"> </text>
<polyline fill="none" stroke="black" points="734,-104 822,-104 "/>
<text text-anchor="middle" x="778" y="-88.8" font-family="WenQuanYi Micro Hei Mono" font-size="14.00">财政支出</text>
<polyline fill="none" stroke="black" points="734,-81 822,-81 "/>
<text text-anchor="middle" x="778" y="-65.8" font-family="WenQuanYi Micro Hei Mono" font-size="14.00">财政赤字率</text>
<polyline fill="none" stroke="black" points="734,-58 822,-58 "/>
<text text-anchor="middle" x="778" y="-42.8" font-family="WenQuanYi Micro Hei Mono" font-size="14.00">偿债率</text>
<polyline fill="none" stroke="black" points="734,-35 822,-35 "/>
<text text-anchor="middle" x="778" y="-19.8" font-family="WenQuanYi Micro Hei Mono" font-size="14.00">负债率</text>
</g>
</g>
</svg>
