<?xml version="1.0" encoding="UTF-8" standalone="no"?>
<!DOCTYPE svg PUBLIC "-//W3C//DTD SVG 1.1//EN"
 "http://www.w3.org/Graphics/SVG/1.1/DTD/svg11.dtd">
<!-- Generated by graphviz version 2.38.0 (20140413.2041)
 -->
<!-- Title: group Pages: 1 -->
<svg width="1045pt" height="188pt"
 viewBox="0.00 0.00 1045.15 188.00" xmlns="http://www.w3.org/2000/svg" xmlns:xlink="http://www.w3.org/1999/xlink">
<g id="graph0" class="graph" transform="scale(1 1) rotate(0) translate(4 184)">
<title>group</title>
<polygon fill="white" stroke="none" points="-4,4 -4,-184 1041.15,-184 1041.15,4 -4,4"/>
<!-- group -->
<g id="node1" class="node"><title>group</title>
<ellipse fill="none" stroke="black" cx="772" cy="-162" rx="31.3957" ry="18"/>
<text text-anchor="middle" x="772" y="-158.3" font-family="Times,serif" font-size="14.00">group</text>
</g>
<!-- provider -->
<g id="node2" class="node"><title>provider</title>
<ellipse fill="none" stroke="black" cx="359" cy="-90" rx="40.0939" ry="18"/>
<text text-anchor="middle" x="359" y="-86.3" font-family="Times,serif" font-size="14.00">provider</text>
</g>
<!-- group&#45;&gt;provider -->
<g id="edge1" class="edge"><title>group&#45;&gt;provider</title>
<path fill="none" stroke="black" d="M742.298,-155.966C671.384,-143.946 491.731,-113.497 405.966,-98.9604"/>
<polygon fill="black" stroke="black" points="406.43,-95.4892 395.986,-97.2688 405.26,-102.391 406.43,-95.4892"/>
</g>
<!-- ensure -->
<g id="node3" class="node"><title>ensure</title>
<ellipse fill="none" stroke="black" cx="652" cy="-90" rx="33.5952" ry="18"/>
<text text-anchor="middle" x="652" y="-86.3" font-family="Times,serif" font-size="14.00">ensure</text>
</g>
<!-- group&#45;&gt;ensure -->
<g id="edge2" class="edge"><title>group&#45;&gt;ensure</title>
<path fill="none" stroke="black" d="M750.823,-148.647C731.983,-137.657 704.194,-121.447 682.879,-109.013"/>
<polygon fill="black" stroke="black" points="684.586,-105.957 674.185,-103.941 681.059,-112.003 684.586,-105.957"/>
</g>
<!-- name -->
<g id="node4" class="node"><title>name</title>
<ellipse fill="none" stroke="black" cx="734" cy="-90" rx="30.5947" ry="18"/>
<text text-anchor="middle" x="734" y="-86.3" font-family="Times,serif" font-size="14.00">name</text>
</g>
<!-- group&#45;&gt;name -->
<g id="edge3" class="edge"><title>group&#45;&gt;name</title>
<path fill="none" stroke="black" d="M762.995,-144.411C758.451,-136.042 752.842,-125.71 747.772,-116.37"/>
<polygon fill="black" stroke="black" points="750.788,-114.589 742.941,-107.47 744.636,-117.928 750.788,-114.589"/>
</g>
<!-- gid -->
<g id="node5" class="node"><title>gid</title>
<ellipse fill="none" stroke="black" cx="810" cy="-90" rx="27" ry="18"/>
<text text-anchor="middle" x="810" y="-86.3" font-family="Times,serif" font-size="14.00">gid</text>
</g>
<!-- group&#45;&gt;gid -->
<g id="edge4" class="edge"><title>group&#45;&gt;gid</title>
<path fill="none" stroke="black" d="M781.005,-144.411C785.549,-136.042 791.158,-125.71 796.228,-116.37"/>
<polygon fill="black" stroke="black" points="799.364,-117.928 801.059,-107.47 793.212,-114.589 799.364,-117.928"/>
</g>
<!-- system -->
<g id="node6" class="node"><title>system</title>
<ellipse fill="none" stroke="black" cx="891" cy="-90" rx="35.9954" ry="18"/>
<text text-anchor="middle" x="891" y="-86.3" font-family="Times,serif" font-size="14.00">system</text>
</g>
<!-- group&#45;&gt;system -->
<g id="edge5" class="edge"><title>group&#45;&gt;system</title>
<path fill="none" stroke="black" d="M793.001,-148.647C811.484,-137.774 838.653,-121.792 859.699,-109.412"/>
<polygon fill="black" stroke="black" points="861.747,-112.268 868.592,-104.181 858.198,-106.235 861.747,-112.268"/>
</g>
<!-- forcelocal -->
<g id="node7" class="node"><title>forcelocal</title>
<ellipse fill="none" stroke="black" cx="991" cy="-90" rx="46.2923" ry="18"/>
<text text-anchor="middle" x="991" y="-86.3" font-family="Times,serif" font-size="14.00">forcelocal</text>
</g>
<!-- group&#45;&gt;forcelocal -->
<g id="edge6" class="edge"><title>group&#45;&gt;forcelocal</title>
<path fill="none" stroke="black" d="M798.854,-152.417C835.7,-140.639 902.397,-119.321 946.699,-105.16"/>
<polygon fill="black" stroke="black" points="947.885,-108.456 956.344,-102.077 945.753,-101.788 947.885,-108.456"/>
</g>
<!-- aix -->
<g id="node10" class="node"><title>aix</title>
<ellipse fill="none" stroke="black" cx="27" cy="-18" rx="27" ry="18"/>
<text text-anchor="middle" x="27" y="-14.3" font-family="Times,serif" font-size="14.00">aix</text>
</g>
<!-- provider&#45;&gt;aix -->
<g id="edge9" class="edge"><title>provider&#45;&gt;aix</title>
<path fill="none" stroke="black" d="M319.894,-85.3202C262.488,-79.1796 152.515,-64.5931 63,-36 61.0742,-35.3848 59.1184,-34.6883 57.1648,-33.9371"/>
<polygon fill="black" stroke="black" points="58.1337,-30.5456 47.5619,-29.8479 55.3912,-36.986 58.1337,-30.5456"/>
</g>
<!-- directoryservice -->
<g id="node11" class="node"><title>directoryservice</title>
<ellipse fill="none" stroke="black" cx="140" cy="-18" rx="67.6881" ry="18"/>
<text text-anchor="middle" x="140" y="-14.3" font-family="Times,serif" font-size="14.00">directoryservice</text>
</g>
<!-- provider&#45;&gt;directoryservice -->
<g id="edge10" class="edge"><title>provider&#45;&gt;directoryservice</title>
<path fill="none" stroke="black" d="M327.156,-78.8214C291.572,-67.4476 233.447,-48.8688 191.404,-35.4306"/>
<polygon fill="black" stroke="black" points="192.214,-32.015 181.623,-32.3042 190.083,-38.6827 192.214,-32.015"/>
</g>
<!-- groupadd -->
<g id="node12" class="node"><title>groupadd</title>
<ellipse fill="none" stroke="black" cx="270" cy="-18" rx="44.393" ry="18"/>
<text text-anchor="middle" x="270" y="-14.3" font-family="Times,serif" font-size="14.00">groupadd</text>
</g>
<!-- provider&#45;&gt;groupadd -->
<g id="edge11" class="edge"><title>provider&#45;&gt;groupadd</title>
<path fill="none" stroke="black" d="M339.688,-73.811C327.411,-64.1543 311.318,-51.4976 297.691,-40.7797"/>
<polygon fill="black" stroke="black" points="299.605,-37.8321 289.581,-34.401 295.278,-43.3342 299.605,-37.8321"/>
</g>
<!-- ldap -->
<g id="node13" class="node"><title>ldap</title>
<ellipse fill="none" stroke="black" cx="359" cy="-18" rx="27" ry="18"/>
<text text-anchor="middle" x="359" y="-14.3" font-family="Times,serif" font-size="14.00">ldap</text>
</g>
<!-- provider&#45;&gt;ldap -->
<g id="edge12" class="edge"><title>provider&#45;&gt;ldap</title>
<path fill="none" stroke="black" d="M359,-71.6966C359,-63.9827 359,-54.7125 359,-46.1124"/>
<polygon fill="black" stroke="black" points="362.5,-46.1043 359,-36.1043 355.5,-46.1044 362.5,-46.1043"/>
</g>
<!-- pw -->
<g id="node14" class="node"><title>pw</title>
<ellipse fill="none" stroke="black" cx="431" cy="-18" rx="27" ry="18"/>
<text text-anchor="middle" x="431" y="-14.3" font-family="Times,serif" font-size="14.00">pw</text>
</g>
<!-- provider&#45;&gt;pw -->
<g id="edge13" class="edge"><title>provider&#45;&gt;pw</title>
<path fill="none" stroke="black" d="M374.979,-73.4647C384.943,-63.7778 397.907,-51.174 408.854,-40.531"/>
<polygon fill="black" stroke="black" points="411.319,-43.0162 416.049,-33.5359 406.439,-37.9972 411.319,-43.0162"/>
</g>
<!-- windows_adsi -->
<g id="node15" class="node"><title>windows_adsi</title>
<ellipse fill="none" stroke="black" cx="537" cy="-18" rx="61.1893" ry="18"/>
<text text-anchor="middle" x="537" y="-14.3" font-family="Times,serif" font-size="14.00">windows_adsi</text>
</g>
<!-- provider&#45;&gt;windows_adsi -->
<g id="edge14" class="edge"><title>provider&#45;&gt;windows_adsi</title>
<path fill="none" stroke="black" d="M388.393,-77.4409C416.581,-66.3556 459.534,-49.4642 492.024,-36.6872"/>
<polygon fill="black" stroke="black" points="493.718,-39.782 501.743,-32.865 491.156,-33.2677 493.718,-39.782"/>
</g>
<!-- present -->
<g id="node8" class="node"><title>present</title>
<ellipse fill="none" stroke="black" cx="652" cy="-18" rx="36.2938" ry="18"/>
<text text-anchor="middle" x="652" y="-14.3" font-family="Times,serif" font-size="14.00">present</text>
</g>
<!-- ensure&#45;&gt;present -->
<g id="edge7" class="edge"><title>ensure&#45;&gt;present</title>
<path fill="none" stroke="black" d="M652,-71.6966C652,-63.9827 652,-54.7125 652,-46.1124"/>
<polygon fill="black" stroke="black" points="655.5,-46.1043 652,-36.1043 648.5,-46.1044 655.5,-46.1043"/>
</g>
<!-- absent -->
<g id="node9" class="node"><title>absent</title>
<ellipse fill="none" stroke="black" cx="740" cy="-18" rx="33.2948" ry="18"/>
<text text-anchor="middle" x="740" y="-14.3" font-family="Times,serif" font-size="14.00">absent</text>
</g>
<!-- ensure&#45;&gt;absent -->
<g id="edge8" class="edge"><title>ensure&#45;&gt;absent</title>
<path fill="none" stroke="black" d="M670.234,-74.496C682.943,-64.3863 700.081,-50.754 714.19,-39.5308"/>
<polygon fill="black" stroke="black" points="716.444,-42.2103 722.091,-33.246 712.086,-36.7321 716.444,-42.2103"/>
</g>
</g>
</svg>
