<?xml version="1.0" encoding="UTF-8" standalone="no"?>
<!DOCTYPE svg PUBLIC "-//W3C//DTD SVG 1.1//EN"
 "http://www.w3.org/Graphics/SVG/1.1/DTD/svg11.dtd">
<!-- Generated by graphviz version 2.36.0 (20140111.2315)
 -->
<!-- Title: file Pages: 1 -->
<svg width="708pt" height="188pt"
 viewBox="0.00 0.00 708.00 188.00" xmlns="http://www.w3.org/2000/svg" xmlns:xlink="http://www.w3.org/1999/xlink">
<g id="graph0" class="graph" transform="scale(1 1) rotate(0) translate(4 184)">
<title>file</title>
<polygon fill="white" stroke="none" points="-4,4 -4,-184 704,-184 704,4 -4,4"/>
<!-- file -->
<g id="node1" class="node"><title>file</title>
<ellipse fill="none" stroke="black" cx="335" cy="-162" rx="27" ry="18"/>
<text text-anchor="middle" x="335" y="-158.3" font-family="Times,serif" font-size="14.00">file</text>
</g>
<!-- path -->
<g id="node2" class="node"><title>path</title>
<ellipse fill="none" stroke="black" cx="90" cy="-90" rx="27" ry="18"/>
<text text-anchor="middle" x="90" y="-86.3" font-family="Times,serif" font-size="14.00">path</text>
</g>
<!-- file&#45;&gt;path -->
<g id="edge1" class="edge"><title>file&#45;&gt;path</title>
<path fill="none" stroke="black" d="M309.436,-156.177C269.568,-148.287 190.472,-131.152 126,-108 124.146,-107.334 122.259,-106.606 120.368,-105.837"/>
<polygon fill="black" stroke="black" points="121.598,-102.555 111.033,-101.762 118.797,-108.97 121.598,-102.555"/>
</g>
<!-- ensure -->
<g id="node3" class="node"><title>ensure</title>
<ellipse fill="none" stroke="black" cx="169" cy="-90" rx="33.1991" ry="18"/>
<text text-anchor="middle" x="169" y="-86.3" font-family="Times,serif" font-size="14.00">ensure</text>
</g>
<!-- file&#45;&gt;ensure -->
<g id="edge2" class="edge"><title>file&#45;&gt;ensure</title>
<path fill="none" stroke="black" d="M311.464,-152.97C282.668,-141.872 234.146,-121.595 201.762,-107.263"/>
<polygon fill="black" stroke="black" points="202.828,-103.905 192.27,-103.022 199.972,-110.297 202.828,-103.905"/>
</g>
<!-- owner -->
<g id="node4" class="node"><title>owner</title>
<ellipse fill="none" stroke="black" cx="253" cy="-90" rx="32.2457" ry="18"/>
<text text-anchor="middle" x="253" y="-86.3" font-family="Times,serif" font-size="14.00">owner</text>
</g>
<!-- file&#45;&gt;owner -->
<g id="edge3" class="edge"><title>file&#45;&gt;owner</title>
<path fill="none" stroke="black" d="M318.799,-147.17C307.126,-137.206 291.158,-123.574 277.875,-112.235"/>
<polygon fill="black" stroke="black" points="279.892,-109.355 270.014,-105.524 275.347,-114.679 279.892,-109.355"/>
</g>
<!-- group -->
<g id="node5" class="node"><title>group</title>
<ellipse fill="none" stroke="black" cx="335" cy="-90" rx="31.2965" ry="18"/>
<text text-anchor="middle" x="335" y="-86.3" font-family="Times,serif" font-size="14.00">group</text>
</g>
<!-- file&#45;&gt;group -->
<g id="edge4" class="edge"><title>file&#45;&gt;group</title>
<path fill="none" stroke="black" d="M335,-143.697C335,-135.983 335,-126.712 335,-118.112"/>
<polygon fill="black" stroke="black" points="338.5,-118.104 335,-108.104 331.5,-118.104 338.5,-118.104"/>
</g>
<!-- mode -->
<g id="node6" class="node"><title>mode</title>
<ellipse fill="none" stroke="black" cx="415" cy="-90" rx="30.3206" ry="18"/>
<text text-anchor="middle" x="415" y="-86.3" font-family="Times,serif" font-size="14.00">mode</text>
</g>
<!-- file&#45;&gt;mode -->
<g id="edge5" class="edge"><title>file&#45;&gt;mode</title>
<path fill="none" stroke="black" d="M350.805,-147.17C362.269,-137.14 377.98,-123.393 390.989,-112.01"/>
<polygon fill="black" stroke="black" points="393.457,-114.501 398.678,-105.282 388.848,-109.233 393.457,-114.501"/>
</g>
<!-- target -->
<g id="node7" class="node"><title>target</title>
<ellipse fill="none" stroke="black" cx="494" cy="-90" rx="30.3206" ry="18"/>
<text text-anchor="middle" x="494" y="-86.3" font-family="Times,serif" font-size="14.00">target</text>
</g>
<!-- file&#45;&gt;target -->
<g id="edge6" class="edge"><title>file&#45;&gt;target</title>
<path fill="none" stroke="black" d="M357.108,-151.267C383.98,-139.436 429.584,-119.359 460.711,-105.656"/>
<polygon fill="black" stroke="black" points="462.524,-108.682 470.266,-101.449 459.703,-102.275 462.524,-108.682"/>
</g>
<!-- content -->
<g id="node8" class="node"><title>content</title>
<ellipse fill="none" stroke="black" cx="579" cy="-90" rx="36.096" ry="18"/>
<text text-anchor="middle" x="579" y="-86.3" font-family="Times,serif" font-size="14.00">content</text>
</g>
<!-- file&#45;&gt;content -->
<g id="edge7" class="edge"><title>file&#45;&gt;content</title>
<path fill="none" stroke="black" d="M360.22,-155.043C398.055,-145.927 471.617,-127.512 533,-108 535.908,-107.076 538.904,-106.077 541.906,-105.042"/>
<polygon fill="black" stroke="black" points="543.161,-108.311 551.413,-101.666 540.818,-101.714 543.161,-108.311"/>
</g>
<!-- source -->
<g id="node9" class="node"><title>source</title>
<ellipse fill="none" stroke="black" cx="667" cy="-90" rx="33.1991" ry="18"/>
<text text-anchor="middle" x="667" y="-86.3" font-family="Times,serif" font-size="14.00">source</text>
</g>
<!-- file&#45;&gt;source -->
<g id="edge8" class="edge"><title>file&#45;&gt;source</title>
<path fill="none" stroke="black" d="M361.697,-157.875C413.157,-151.465 529.355,-135.106 624,-108 626.749,-107.213 629.566,-106.315 632.378,-105.354"/>
<polygon fill="black" stroke="black" points="633.627,-108.624 641.818,-101.903 631.224,-102.049 633.627,-108.624"/>
</g>
<!-- ensure&#45;&gt;file -->
<g id="edge11" class="edge"><title>ensure&#45;&gt;file</title>
<path fill="none" stroke="black" d="M196.197,-100.449C226.189,-112.134 273.987,-132.167 305.02,-145.971"/>
<polygon fill="black" stroke="black" points="303.906,-149.308 314.462,-150.216 306.776,-142.924 303.906,-149.308"/>
</g>
<!-- absent -->
<g id="node10" class="node"><title>absent</title>
<ellipse fill="none" stroke="black" cx="33" cy="-18" rx="33.2209" ry="18"/>
<text text-anchor="middle" x="33" y="-14.3" font-family="Times,serif" font-size="14.00">absent</text>
</g>
<!-- ensure&#45;&gt;absent -->
<g id="edge9" class="edge"><title>ensure&#45;&gt;absent</title>
<path fill="none" stroke="black" d="M145.621,-76.9666C123.532,-65.5975 90.1976,-48.44 65.5213,-35.7389"/>
<polygon fill="black" stroke="black" points="67.0224,-32.5752 56.5293,-31.1107 63.8189,-38.7991 67.0224,-32.5752"/>
</g>
<!-- present -->
<g id="node11" class="node"><title>present</title>
<ellipse fill="none" stroke="black" cx="121" cy="-18" rx="36.096" ry="18"/>
<text text-anchor="middle" x="121" y="-14.3" font-family="Times,serif" font-size="14.00">present</text>
</g>
<!-- ensure&#45;&gt;present -->
<g id="edge10" class="edge"><title>ensure&#45;&gt;present</title>
<path fill="none" stroke="black" d="M157.867,-72.7646C151.93,-64.1064 144.502,-53.2731 137.871,-43.604"/>
<polygon fill="black" stroke="black" points="140.614,-41.4152 132.072,-35.1473 134.841,-45.374 140.614,-41.4152"/>
</g>
<!-- directory -->
<g id="node12" class="node"><title>directory</title>
<ellipse fill="none" stroke="black" cx="218" cy="-18" rx="42.3701" ry="18"/>
<text text-anchor="middle" x="218" y="-14.3" font-family="Times,serif" font-size="14.00">directory</text>
</g>
<!-- ensure&#45;&gt;directory -->
<g id="edge12" class="edge"><title>ensure&#45;&gt;directory</title>
<path fill="none" stroke="black" d="M180.365,-72.7646C186.339,-64.2301 193.792,-53.5822 200.487,-44.0191"/>
<polygon fill="black" stroke="black" points="203.489,-45.8329 206.357,-35.6334 197.755,-41.8186 203.489,-45.8329"/>
</g>
<!-- link -->
<g id="node13" class="node"><title>link</title>
<ellipse fill="none" stroke="black" cx="305" cy="-18" rx="27" ry="18"/>
<text text-anchor="middle" x="305" y="-14.3" font-family="Times,serif" font-size="14.00">link</text>
</g>
<!-- ensure&#45;&gt;link -->
<g id="edge13" class="edge"><title>ensure&#45;&gt;link</title>
<path fill="none" stroke="black" d="M192.379,-76.9666C215.276,-65.1816 250.257,-47.1768 275.151,-34.3633"/>
<polygon fill="black" stroke="black" points="276.863,-37.4188 284.152,-29.7304 273.659,-31.1949 276.863,-37.4188"/>
</g>
<!-- a file -->
<g id="node14" class="node"><title>a file</title>
<ellipse fill="none" stroke="black" cx="537" cy="-18" rx="28.3955" ry="18"/>
<text text-anchor="middle" x="537" y="-14.3" font-family="Times,serif" font-size="14.00">a file</text>
</g>
<!-- content&#45;&gt;a file -->
<g id="edge14" class="edge"><title>content&#45;&gt;a file</title>
<path fill="none" stroke="black" d="M569.047,-72.411C563.899,-63.8323 557.514,-53.1908 551.802,-43.6695"/>
<polygon fill="black" stroke="black" points="554.739,-41.7623 546.593,-34.9881 548.737,-45.3638 554.739,-41.7623"/>
</g>
<!-- a string -->
<g id="node15" class="node"><title>a string</title>
<ellipse fill="none" stroke="black" cx="621" cy="-18" rx="37.0701" ry="18"/>
<text text-anchor="middle" x="621" y="-14.3" font-family="Times,serif" font-size="14.00">a string</text>
</g>
<!-- content&#45;&gt;a string -->
<g id="edge15" class="edge"><title>content&#45;&gt;a string</title>
<path fill="none" stroke="black" d="M588.953,-72.411C594.027,-63.9549 600.303,-53.4944 605.953,-44.0783"/>
<polygon fill="black" stroke="black" points="608.974,-45.8456 611.118,-35.4699 602.972,-42.2441 608.974,-45.8456"/>
</g>
</g>
</svg>
