<?xml version="1.0" encoding="UTF-8" standalone="no"?>
<!DOCTYPE svg PUBLIC "-//W3C//DTD SVG 1.1//EN"
 "http://www.w3.org/Graphics/SVG/1.1/DTD/svg11.dtd">
<!-- Generated by graphviz version 2.36.0 (20140111.2315)
 -->
<!-- Title: user Pages: 1 -->
<svg width="830pt" height="116pt"
 viewBox="0.00 0.00 830.00 116.00" xmlns="http://www.w3.org/2000/svg" xmlns:xlink="http://www.w3.org/1999/xlink">
<g id="graph0" class="graph" transform="scale(1 1) rotate(0) translate(4 112)">
<title>user</title>
<polygon fill="white" stroke="none" points="-4,4 -4,-112 826,-112 826,4 -4,4"/>
<!-- user -->
<g id="node1" class="node"><title>user</title>
<ellipse fill="none" stroke="black" cx="401" cy="-90" rx="27" ry="18"/>
<text text-anchor="middle" x="401" y="-86.3" font-family="Times,serif" font-size="14.00">user</text>
</g>
<!-- provider -->
<g id="node2" class="node"><title>provider</title>
<ellipse fill="none" stroke="black" cx="40" cy="-18" rx="39.9464" ry="18"/>
<text text-anchor="middle" x="40" y="-14.3" font-family="Times,serif" font-size="14.00">provider</text>
</g>
<!-- user&#45;&gt;provider -->
<g id="edge1" class="edge"><title>user&#45;&gt;provider</title>
<path fill="none" stroke="black" d="M374.393,-85.9907C320.134,-79.5242 193.044,-62.6894 89,-36 85.8601,-35.1946 82.6343,-34.2795 79.4088,-33.3015"/>
<polygon fill="black" stroke="black" points="80.411,-29.9473 69.8198,-30.2256 78.2729,-36.6128 80.411,-29.9473"/>
</g>
<!-- ensure -->
<g id="node3" class="node"><title>ensure</title>
<ellipse fill="none" stroke="black" cx="132" cy="-18" rx="33.1991" ry="18"/>
<text text-anchor="middle" x="132" y="-14.3" font-family="Times,serif" font-size="14.00">ensure</text>
</g>
<!-- user&#45;&gt;ensure -->
<g id="edge2" class="edge"><title>user&#45;&gt;ensure</title>
<path fill="none" stroke="black" d="M375.117,-84.3168C332.603,-76.323 245.561,-58.6857 174,-36 171.572,-35.2304 169.087,-34.3836 166.597,-33.4914"/>
<polygon fill="black" stroke="black" points="167.678,-30.1583 157.087,-29.8925 165.201,-36.7052 167.678,-30.1583"/>
</g>
<!-- name -->
<g id="node4" class="node"><title>name</title>
<ellipse fill="none" stroke="black" cx="214" cy="-18" rx="30.3206" ry="18"/>
<text text-anchor="middle" x="214" y="-14.3" font-family="Times,serif" font-size="14.00">name</text>
</g>
<!-- user&#45;&gt;name -->
<g id="edge3" class="edge"><title>user&#45;&gt;name</title>
<path fill="none" stroke="black" d="M377.426,-80.9559C348.266,-70.9011 297.184,-52.9464 254,-36 251.664,-35.0835 249.261,-34.1183 246.846,-33.1325"/>
<polygon fill="black" stroke="black" points="248.177,-29.8953 237.599,-29.2877 245.489,-36.3589 248.177,-29.8953"/>
</g>
<!-- uid -->
<g id="node5" class="node"><title>uid</title>
<ellipse fill="none" stroke="black" cx="290" cy="-18" rx="27" ry="18"/>
<text text-anchor="middle" x="290" y="-14.3" font-family="Times,serif" font-size="14.00">uid</text>
</g>
<!-- user&#45;&gt;uid -->
<g id="edge4" class="edge"><title>user&#45;&gt;uid</title>
<path fill="none" stroke="black" d="M381.918,-76.9666C364.287,-65.8479 337.877,-49.193 317.884,-36.5846"/>
<polygon fill="black" stroke="black" points="319.53,-33.4844 309.204,-31.1107 315.796,-39.4054 319.53,-33.4844"/>
</g>
<!-- gid -->
<g id="node6" class="node"><title>gid</title>
<ellipse fill="none" stroke="black" cx="362" cy="-18" rx="27" ry="18"/>
<text text-anchor="middle" x="362" y="-14.3" font-family="Times,serif" font-size="14.00">gid</text>
</g>
<!-- user&#45;&gt;gid -->
<g id="edge5" class="edge"><title>user&#45;&gt;gid</title>
<path fill="none" stroke="black" d="M391.955,-72.7646C387.18,-64.1948 381.218,-53.494 375.873,-43.9004"/>
<polygon fill="black" stroke="black" points="378.921,-42.1795 370.996,-35.1473 372.806,-45.5865 378.921,-42.1795"/>
</g>
<!-- groups -->
<g id="node7" class="node"><title>groups</title>
<ellipse fill="none" stroke="black" cx="441" cy="-18" rx="34.1708" ry="18"/>
<text text-anchor="middle" x="441" y="-14.3" font-family="Times,serif" font-size="14.00">groups</text>
</g>
<!-- user&#45;&gt;groups -->
<g id="edge6" class="edge"><title>user&#45;&gt;groups</title>
<path fill="none" stroke="black" d="M410.277,-72.7646C415.055,-64.4043 420.991,-54.0159 426.368,-44.6059"/>
<polygon fill="black" stroke="black" points="429.573,-46.0523 431.495,-35.6334 423.495,-42.5793 429.573,-46.0523"/>
</g>
<!-- home -->
<g id="node8" class="node"><title>home</title>
<ellipse fill="none" stroke="black" cx="524" cy="-18" rx="30.3206" ry="18"/>
<text text-anchor="middle" x="524" y="-14.3" font-family="Times,serif" font-size="14.00">home</text>
</g>
<!-- user&#45;&gt;home -->
<g id="edge7" class="edge"><title>user&#45;&gt;home</title>
<path fill="none" stroke="black" d="M421.036,-77.5975C440.78,-66.3611 471.196,-49.0511 493.857,-36.1544"/>
<polygon fill="black" stroke="black" points="495.774,-39.0907 502.734,-31.1026 492.312,-33.0069 495.774,-39.0907"/>
</g>
<!-- password -->
<g id="node9" class="node"><title>password</title>
<ellipse fill="none" stroke="black" cx="617" cy="-18" rx="44.2946" ry="18"/>
<text text-anchor="middle" x="617" y="-14.3" font-family="Times,serif" font-size="14.00">password</text>
</g>
<!-- user&#45;&gt;password -->
<g id="edge8" class="edge"><title>user&#45;&gt;password</title>
<path fill="none" stroke="black" d="M424.941,-81.2413C460.784,-69.6255 528.954,-47.5333 573.685,-33.0373"/>
<polygon fill="black" stroke="black" points="574.974,-36.299 583.407,-29.8865 572.815,-29.6399 574.974,-36.299"/>
</g>
<!-- shell -->
<g id="node10" class="node"><title>shell</title>
<ellipse fill="none" stroke="black" cx="706" cy="-18" rx="26.949" ry="18"/>
<text text-anchor="middle" x="706" y="-14.3" font-family="Times,serif" font-size="14.00">shell</text>
</g>
<!-- user&#45;&gt;shell -->
<g id="edge9" class="edge"><title>user&#45;&gt;shell</title>
<path fill="none" stroke="black" d="M427.517,-85.98C476.405,-79.9316 583.64,-64.4136 670,-36 671.92,-35.3682 673.872,-34.6588 675.822,-33.8978"/>
<polygon fill="black" stroke="black" points="677.606,-36.9413 685.417,-29.7834 674.847,-30.5079 677.606,-36.9413"/>
</g>
<!-- system -->
<g id="node11" class="node"><title>system</title>
<ellipse fill="none" stroke="black" cx="787" cy="-18" rx="35.6194" ry="18"/>
<text text-anchor="middle" x="787" y="-14.3" font-family="Times,serif" font-size="14.00">system</text>
</g>
<!-- user&#45;&gt;system -->
<g id="edge10" class="edge"><title>user&#45;&gt;system</title>
<path fill="none" stroke="black" d="M427.916,-86.7267C486.034,-81.404 627.291,-66.2324 742,-36 744.801,-35.2617 747.67,-34.4114 750.535,-33.4929"/>
<polygon fill="black" stroke="black" points="751.855,-36.7402 760.168,-30.1716 749.573,-30.1226 751.855,-36.7402"/>
</g>
</g>
</svg>
