<?xml version="1.0" encoding="UTF-8" standalone="no"?>
<!DOCTYPE svg PUBLIC "-//W3C//DTD SVG 1.1//EN"
 "http://www.w3.org/Graphics/SVG/1.1/DTD/svg11.dtd">
<!-- Generated by graphviz version 2.36.0 (20140111.2315)
 -->
<!-- Title: host Pages: 1 -->
<svg width="330pt" height="314pt"
 viewBox="0.00 0.00 330.00 314.00" xmlns="http://www.w3.org/2000/svg" xmlns:xlink="http://www.w3.org/1999/xlink">
<g id="graph0" class="graph" transform="scale(1 1) rotate(0) translate(4 310)">
<title>host</title>
<polygon fill="white" stroke="none" points="-4,4 -4,-310 326,-310 326,4 -4,4"/>
<!-- host -->
<g id="node1" class="node"><title>host</title>
<ellipse fill="none" stroke="black" cx="27" cy="-153" rx="27" ry="18"/>
<text text-anchor="middle" x="27" y="-149.3" font-family="Times,serif" font-size="14.00">host</text>
</g>
<!-- name -->
<g id="node2" class="node"><title>name</title>
<ellipse fill="none" stroke="black" cx="144" cy="-288" rx="30.5947" ry="18"/>
<text text-anchor="middle" x="144" y="-284.3" font-family="Times,serif" font-size="14.00">name</text>
</g>
<!-- host&#45;&gt;name -->
<g id="edge1" class="edge"><title>host&#45;&gt;name</title>
<path fill="none" stroke="black" d="M34.3027,-170.366C43.464,-193.562 62.4299,-234.774 90,-261 95.4012,-266.138 101.971,-270.525 108.62,-274.176"/>
<polygon fill="black" stroke="black" points="107.127,-277.343 117.634,-278.701 110.267,-271.087 107.127,-277.343"/>
</g>
<!-- ensure -->
<g id="node3" class="node"><title>ensure</title>
<ellipse fill="none" stroke="black" cx="144" cy="-234" rx="33.5952" ry="18"/>
<text text-anchor="middle" x="144" y="-230.3" font-family="Times,serif" font-size="14.00">ensure</text>
</g>
<!-- host&#45;&gt;ensure -->
<g id="edge2" class="edge"><title>host&#45;&gt;ensure</title>
<path fill="none" stroke="black" d="M42.9371,-167.883C54.9908,-179.415 72.7278,-195.339 90,-207 95.7503,-210.882 102.133,-214.587 108.42,-217.939"/>
<polygon fill="black" stroke="black" points="106.982,-221.135 117.478,-222.578 110.173,-214.904 106.982,-221.135"/>
</g>
<!-- ip -->
<g id="node4" class="node"><title>ip</title>
<ellipse fill="none" stroke="black" cx="144" cy="-180" rx="27" ry="18"/>
<text text-anchor="middle" x="144" y="-176.3" font-family="Times,serif" font-size="14.00">ip</text>
</g>
<!-- host&#45;&gt;ip -->
<g id="edge3" class="edge"><title>host&#45;&gt;ip</title>
<path fill="none" stroke="black" d="M52.6704,-158.792C68.9661,-162.618 90.5524,-167.686 108.536,-171.909"/>
<polygon fill="black" stroke="black" points="107.835,-175.339 118.37,-174.217 109.435,-168.524 107.835,-175.339"/>
</g>
<!-- host_aliases -->
<g id="node5" class="node"><title>host_aliases</title>
<ellipse fill="none" stroke="black" cx="144" cy="-126" rx="53.0913" ry="18"/>
<text text-anchor="middle" x="144" y="-122.3" font-family="Times,serif" font-size="14.00">host_aliases</text>
</g>
<!-- host&#45;&gt;host_aliases -->
<g id="edge4" class="edge"><title>host&#45;&gt;host_aliases</title>
<path fill="none" stroke="black" d="M52.6704,-147.208C63.6095,-144.64 76.9326,-141.511 89.9498,-138.455"/>
<polygon fill="black" stroke="black" points="90.8646,-141.836 99.7999,-136.143 89.2646,-135.021 90.8646,-141.836"/>
</g>
<!-- provider -->
<g id="node6" class="node"><title>provider</title>
<ellipse fill="none" stroke="black" cx="144" cy="-72" rx="40.0939" ry="18"/>
<text text-anchor="middle" x="144" y="-68.3" font-family="Times,serif" font-size="14.00">provider</text>
</g>
<!-- host&#45;&gt;provider -->
<g id="edge5" class="edge"><title>host&#45;&gt;provider</title>
<path fill="none" stroke="black" d="M42.9371,-138.117C54.9908,-126.585 72.7278,-110.661 90,-99 94.9894,-95.6314 100.455,-92.3969 105.921,-89.41"/>
<polygon fill="black" stroke="black" points="107.8,-92.3766 115.036,-84.6373 104.553,-86.1752 107.8,-92.3766"/>
</g>
<!-- target -->
<g id="node7" class="node"><title>target</title>
<ellipse fill="none" stroke="black" cx="144" cy="-18" rx="30.5947" ry="18"/>
<text text-anchor="middle" x="144" y="-14.3" font-family="Times,serif" font-size="14.00">target</text>
</g>
<!-- host&#45;&gt;target -->
<g id="edge6" class="edge"><title>host&#45;&gt;target</title>
<path fill="none" stroke="black" d="M34.3027,-135.634C43.464,-112.438 62.4299,-71.2256 90,-45 95.4012,-39.8622 101.971,-35.4751 108.62,-31.8238"/>
<polygon fill="black" stroke="black" points="110.267,-34.9133 117.634,-27.2994 107.127,-28.6571 110.267,-34.9133"/>
</g>
<!-- present -->
<g id="node8" class="node"><title>present</title>
<ellipse fill="none" stroke="black" cx="278" cy="-261" rx="36.2938" ry="18"/>
<text text-anchor="middle" x="278" y="-257.3" font-family="Times,serif" font-size="14.00">present</text>
</g>
<!-- ensure&#45;&gt;present -->
<g id="edge7" class="edge"><title>ensure&#45;&gt;present</title>
<path fill="none" stroke="black" d="M175.948,-240.33C193.259,-243.871 215.102,-248.339 234.047,-252.214"/>
<polygon fill="black" stroke="black" points="233.44,-255.662 243.938,-254.237 234.843,-248.804 233.44,-255.662"/>
</g>
<!-- absent -->
<g id="node9" class="node"><title>absent</title>
<ellipse fill="none" stroke="black" cx="278" cy="-207" rx="33.2948" ry="18"/>
<text text-anchor="middle" x="278" y="-203.3" font-family="Times,serif" font-size="14.00">absent</text>
</g>
<!-- ensure&#45;&gt;absent -->
<g id="edge8" class="edge"><title>ensure&#45;&gt;absent</title>
<path fill="none" stroke="black" d="M175.948,-227.67C194.117,-223.953 217.28,-219.216 236.844,-215.214"/>
<polygon fill="black" stroke="black" points="237.605,-218.631 246.701,-213.198 236.202,-211.773 237.605,-218.631"/>
</g>
<!-- parsed -->
<g id="node10" class="node"><title>parsed</title>
<ellipse fill="none" stroke="black" cx="278" cy="-72" rx="33.5952" ry="18"/>
<text text-anchor="middle" x="278" y="-68.3" font-family="Times,serif" font-size="14.00">parsed</text>
</g>
<!-- provider&#45;&gt;parsed -->
<g id="edge9" class="edge"><title>provider&#45;&gt;parsed</title>
<path fill="none" stroke="black" d="M184.604,-72C200.178,-72 218.099,-72 233.989,-72"/>
<polygon fill="black" stroke="black" points="234.092,-75.5001 244.092,-72 234.092,-68.5001 234.092,-75.5001"/>
</g>
<!-- /etc/hosts -->
<g id="node11" class="node"><title>/etc/hosts</title>
<ellipse fill="none" stroke="black" cx="278" cy="-18" rx="44.393" ry="18"/>
<text text-anchor="middle" x="278" y="-14.3" font-family="Times,serif" font-size="14.00">/etc/hosts</text>
</g>
<!-- target&#45;&gt;/etc/hosts -->
<g id="edge10" class="edge"><title>target&#45;&gt;/etc/hosts</title>
<path fill="none" stroke="black" d="M174.623,-18C189.038,-18 206.82,-18 223.497,-18"/>
<polygon fill="black" stroke="black" points="223.698,-21.5001 233.698,-18 223.698,-14.5001 223.698,-21.5001"/>
</g>
</g>
</svg>
