<?xml version="1.0" encoding="UTF-8" standalone="no"?>
<!DOCTYPE svg PUBLIC "-//W3C//DTD SVG 1.1//EN"
 "http://www.w3.org/Graphics/SVG/1.1/DTD/svg11.dtd">
<!-- Generated by graphviz version 2.38.0 (20140413.2041)
 -->
<!-- Title: host Pages: 1 -->
<svg width="329pt" height="314pt"
 viewBox="0.00 0.00 328.98 314.00" xmlns="http://www.w3.org/2000/svg" xmlns:xlink="http://www.w3.org/1999/xlink">
<g id="graph0" class="graph" transform="scale(1 1) rotate(0) translate(4 310)">
<title>host</title>
<polygon fill="white" stroke="none" points="-4,4 -4,-310 324.983,-310 324.983,4 -4,4"/>
<!-- host -->
<g id="node1" class="node"><title>host</title>
<ellipse fill="none" stroke="black" cx="27" cy="-153" rx="27" ry="18"/>
<text text-anchor="middle" x="27" y="-149.3" font-family="Times,serif" font-size="14.00">host</text>
</g>
<!-- name -->
<g id="node2" class="node"><title>name</title>
<ellipse fill="none" stroke="black" cx="143.295" cy="-288" rx="30.5947" ry="18"/>
<text text-anchor="middle" x="143.295" y="-284.3" font-family="Times,serif" font-size="14.00">name</text>
</g>
<!-- host&#45;&gt;name -->
<g id="edge1" class="edge"><title>host&#45;&gt;name</title>
<path fill="none" stroke="black" d="M34.3236,-170.344C43.5086,-193.515 62.5013,-234.7 90,-261 95.1596,-265.935 101.399,-270.187 107.744,-273.762"/>
<polygon fill="black" stroke="black" points="106.507,-277.062 117.002,-278.516 109.704,-270.835 106.507,-277.062"/>
</g>
<!-- ensure -->
<g id="node3" class="node"><title>ensure</title>
<ellipse fill="none" stroke="black" cx="143.295" cy="-234" rx="33.5952" ry="18"/>
<text text-anchor="middle" x="143.295" y="-230.3" font-family="Times,serif" font-size="14.00">ensure</text>
</g>
<!-- host&#45;&gt;ensure -->
<g id="edge2" class="edge"><title>host&#45;&gt;ensure</title>
<path fill="none" stroke="black" d="M42.9546,-167.857C55.0181,-179.374 72.7595,-195.292 90,-207 95.6792,-210.857 101.98,-214.549 108.184,-217.897"/>
<polygon fill="black" stroke="black" points="106.633,-221.036 117.121,-222.536 109.858,-214.823 106.633,-221.036"/>
</g>
<!-- ip -->
<g id="node4" class="node"><title>ip</title>
<ellipse fill="none" stroke="black" cx="143.295" cy="-180" rx="27" ry="18"/>
<text text-anchor="middle" x="143.295" y="-176.3" font-family="Times,serif" font-size="14.00">ip</text>
</g>
<!-- host&#45;&gt;ip -->
<g id="edge3" class="edge"><title>host&#45;&gt;ip</title>
<path fill="none" stroke="black" d="M52.8004,-158.859C68.8263,-162.644 89.9126,-167.626 107.592,-171.802"/>
<polygon fill="black" stroke="black" points="107.006,-175.26 117.543,-174.153 108.616,-168.447 107.006,-175.26"/>
</g>
<!-- host_aliases -->
<g id="node5" class="node"><title>host_aliases</title>
<ellipse fill="none" stroke="black" cx="143.295" cy="-126" rx="53.0913" ry="18"/>
<text text-anchor="middle" x="143.295" y="-122.3" font-family="Times,serif" font-size="14.00">host_aliases</text>
</g>
<!-- host&#45;&gt;host_aliases -->
<g id="edge4" class="edge"><title>host&#45;&gt;host_aliases</title>
<path fill="none" stroke="black" d="M52.8004,-147.141C63.4723,-144.62 76.3883,-141.569 89.0479,-138.579"/>
<polygon fill="black" stroke="black" points="90.1704,-141.91 99.0979,-136.205 88.561,-135.097 90.1704,-141.91"/>
</g>
<!-- provider -->
<g id="node6" class="node"><title>provider</title>
<ellipse fill="none" stroke="black" cx="143.295" cy="-72" rx="40.0939" ry="18"/>
<text text-anchor="middle" x="143.295" y="-68.3" font-family="Times,serif" font-size="14.00">provider</text>
</g>
<!-- host&#45;&gt;provider -->
<g id="edge5" class="edge"><title>host&#45;&gt;provider</title>
<path fill="none" stroke="black" d="M42.9546,-138.143C55.0181,-126.626 72.7595,-110.708 90,-99 94.8736,-95.6903 100.204,-92.5019 105.54,-89.548"/>
<polygon fill="black" stroke="black" points="107.253,-92.6009 114.442,-84.8182 103.969,-86.4192 107.253,-92.6009"/>
</g>
<!-- target -->
<g id="node7" class="node"><title>target</title>
<ellipse fill="none" stroke="black" cx="143.295" cy="-18" rx="30.5947" ry="18"/>
<text text-anchor="middle" x="143.295" y="-14.3" font-family="Times,serif" font-size="14.00">target</text>
</g>
<!-- host&#45;&gt;target -->
<g id="edge6" class="edge"><title>host&#45;&gt;target</title>
<path fill="none" stroke="black" d="M34.3236,-135.656C43.5086,-112.485 62.5013,-71.3005 90,-45 95.1596,-40.0652 101.399,-35.8127 107.744,-32.2378"/>
<polygon fill="black" stroke="black" points="109.704,-35.1655 117.002,-27.4844 106.507,-28.9383 109.704,-35.1655"/>
</g>
<!-- present -->
<g id="node8" class="node"><title>present</title>
<ellipse fill="none" stroke="black" cx="276.787" cy="-261" rx="36.2938" ry="18"/>
<text text-anchor="middle" x="276.787" y="-257.3" font-family="Times,serif" font-size="14.00">present</text>
</g>
<!-- ensure&#45;&gt;present -->
<g id="edge7" class="edge"><title>ensure&#45;&gt;present</title>
<path fill="none" stroke="black" d="M175.124,-240.33C192.368,-243.871 214.127,-248.339 233,-252.214"/>
<polygon fill="black" stroke="black" points="232.353,-255.654 242.852,-254.237 233.761,-248.797 232.353,-255.654"/>
</g>
<!-- absent -->
<g id="node9" class="node"><title>absent</title>
<ellipse fill="none" stroke="black" cx="276.787" cy="-207" rx="33.2948" ry="18"/>
<text text-anchor="middle" x="276.787" y="-203.3" font-family="Times,serif" font-size="14.00">absent</text>
</g>
<!-- ensure&#45;&gt;absent -->
<g id="edge8" class="edge"><title>ensure&#45;&gt;absent</title>
<path fill="none" stroke="black" d="M175.124,-227.67C193.223,-223.953 216.296,-219.216 235.785,-215.214"/>
<polygon fill="black" stroke="black" points="236.513,-218.637 245.604,-213.198 235.105,-211.781 236.513,-218.637"/>
</g>
<!-- parsed -->
<g id="node10" class="node"><title>parsed</title>
<ellipse fill="none" stroke="black" cx="276.787" cy="-72" rx="33.5952" ry="18"/>
<text text-anchor="middle" x="276.787" y="-68.3" font-family="Times,serif" font-size="14.00">parsed</text>
</g>
<!-- provider&#45;&gt;parsed -->
<g id="edge9" class="edge"><title>provider&#45;&gt;parsed</title>
<path fill="none" stroke="black" d="M183.747,-72C199.137,-72 216.827,-72 232.561,-72"/>
<polygon fill="black" stroke="black" points="232.574,-75.5001 242.574,-72 232.574,-68.5001 232.574,-75.5001"/>
</g>
<!-- /etc/hosts -->
<g id="node11" class="node"><title>/etc/hosts</title>
<ellipse fill="none" stroke="black" cx="276.787" cy="-18" rx="44.393" ry="18"/>
<text text-anchor="middle" x="276.787" y="-14.3" font-family="Times,serif" font-size="14.00">/etc/hosts</text>
</g>
<!-- target&#45;&gt;/etc/hosts -->
<g id="edge10" class="edge"><title>target&#45;&gt;/etc/hosts</title>
<path fill="none" stroke="black" d="M174.133,-18C188.377,-18 205.865,-18 222.294,-18"/>
<polygon fill="black" stroke="black" points="222.349,-21.5001 232.348,-18 222.348,-14.5001 222.349,-21.5001"/>
</g>
</g>
</svg>
